<?xml version="1.0" standalone="no"?>
<!DOCTYPE svg PUBLIC "-//W3C//DTD SVG 20010904//EN"
 "http://www.w3.org/TR/2001/REC-SVG-20010904/DTD/svg10.dtd">
<svg version="1.0" xmlns="http://www.w3.org/2000/svg"
 width="408.000000pt" height="408.000000pt" viewBox="0 0 408.000000 408.000000"
 preserveAspectRatio="xMidYMid meet">
<metadata>
Created by potrace 1.11, written by Peter Selinger 2001-2013
</metadata>
<g transform="translate(0.000000,408.000000) scale(0.100000,-0.100000)"
fill="#000000" stroke="none">
<path d="M2698 3995 c-103 -70 -236 -337 -403 -810 -47 -131 -76 -198 -94
-217 -22 -22 -267 -225 -431 -358 -46 -37 -171 -140 -206 -169 -11 -10 -81
-67 -155 -127 -74 -60 -145 -119 -159 -131 -14 -12 -70 -58 -125 -103 -312
-254 -305 -248 -305 -278 1 -75 54 -74 147 4 37 31 77 64 88 73 11 9 97 79
190 156 94 76 211 172 260 213 50 41 99 82 110 91 11 9 56 45 100 81 44 36 82
67 85 71 3 3 52 43 110 90 58 46 107 86 110 89 13 13 116 97 127 103 6 4 -6
-46 -27 -110 -21 -65 -66 -203 -100 -308 -35 -104 -68 -202 -76 -216 -8 -16
-54 -52 -111 -87 -83 -52 -244 -161 -278 -189 -5 -5 -39 -31 -75 -58 -100 -76
-194 -161 -314 -281 -166 -165 -273 -303 -413 -530 -25 -41 -102 -202 -126
-264 -125 -327 -82 -610 101 -664 103 -30 212 14 331 133 69 69 150 164 176
209 6 9 28 44 49 77 123 189 326 582 461 895 37 85 73 169 81 186 8 18 48 115
89 215 42 101 82 200 91 219 13 30 42 52 192 144 97 59 212 130 256 157 43 27
80 48 82 47 1 -2 -15 -35 -38 -73 -163 -281 -292 -556 -358 -762 -46 -143 -59
-218 -56 -318 2 -112 26 -168 88 -208 103 -67 167 -23 422 293 77 96 174 208
214 248 75 74 161 132 197 132 32 0 65 28 65 55 0 59 -69 71 -160 29 -103 -48
-189 -131 -389 -379 -170 -210 -211 -255 -249 -278 -28 -16 -32 -16 -47 -1
-25 26 -35 60 -35 122 1 197 145 555 415 1032 39 68 102 175 142 240 9 14 55
51 102 83 194 132 383 281 480 377 90 90 130 159 138 235 7 69 -14 120 -62
153 -72 50 -144 32 -240 -59 -93 -88 -262 -321 -424 -587 -59 -95 -68 -106
-144 -156 -148 -96 -281 -181 -347 -222 -36 -21 -72 -43 -81 -49 -9 -5 -30
-18 -47 -27 l-31 -18 9 28 c5 15 44 135 86 267 42 132 89 280 105 329 27 86
32 93 110 170 45 45 116 122 156 171 41 50 82 99 91 110 49 60 170 251 203
320 49 105 62 160 57 243 -3 53 -9 78 -28 105 -48 70 -117 86 -182 42z m91
-107 c55 -89 -57 -324 -294 -614 -90 -109 -90 -109 -50 0 105 292 218 526 293
609 31 33 33 33 51 5z m567 -675 c12 -45 -25 -114 -100 -188 -63 -62 -187
-166 -300 -251 -39 -29 -39 -29 -26 -4 46 86 241 351 304 410 77 74 110 83
122 33z m-1517 -1325 c-170 -433 -421 -964 -585 -1238 -120 -201 -215 -325
-324 -422 -34 -31 -97 -60 -130 -61 -138 -3 -174 208 -83 481 129 388 469 805
939 1150 64 47 195 139 201 141 2 1 -7 -23 -18 -51z"/>
</g>
</svg>
