<svg id="Layer_1" data-name="Layer 1" xmlns="http://www.w3.org/2000/svg" viewBox="0 0 308.52 163.81"><defs><style>.cls-1{fill:none;stroke:#fff;stroke-linecap:round;stroke-linejoin:round;stroke-width:4px;}</style></defs><title>logo_white</title><path class="cls-1" d="M16.32,91.19l52.35-43a98.81,98.81,0,0,0,12-11.72C88.89,27,100.7,11.18,94.4,4.89,85.16-4.36,64.47,73.14,61.5,78.5c-2.82,5.08-31,83.46-49.29,80.5-14.52-2.36-6.47-46.25,47.26-78.08C112.5,49.5,117,39.82,117,39.82s3.49-5.32,0-8.22-9.19.87-29.51,34.9-24.44,52.28-17,56c6,3,20.88-27.74,32-28,0,0-16,17-9,21s18.59-22,14-22c-2.05,0-2.16,14.05,4,12,9.75-3.25,69-52,56-55-10.66-2.46-36,51-30,60,5.67,8.5,35.14-29.22,41.78-38a22.59,22.59,0,0,0,3.45-6.34c.82-2.41,1.27-5.2-.23-6.7-5.14-5.14-20.29,29.63-22.34,46.07,0,0,7.12-17.07,15.34-17.07,6.16,0,2.16,9-4,9,0,0,3.59-2.83,5,0,1,2-1,4,0,5,3.72,3.72,15-13.81,19-14,.15,0,.14-.06,0,0-1.6.69-4.19,5,0,6,4,1,5-7,0-6-1.15.23.48-.58,2,0,13,5,106.05-7,106.5-9.64"/></svg>